REM DIRINDEX 1\5,1\2\6,1\2\7,1\3\8,1\3\9,1\4\10,1\4\11,1\4\12
REM DIRNAME folder01,folder02,folder03,folder04,folder05,folder06,folder07,folder08,folder09,folder10,folder11,folder12
TITLE ""
FILE "EJE_DB3000_5th_3B_24.mp3" MP3
  TRACK 01 AUDIO
    TITLE "0:"
    INDEX 01 00:00:00
  TRACK 02 AUDIO
    TITLE "10:cjc026_09084"
    INDEX 01 00:00:07
  TRACK 03 AUDIO
    TITLE "0:"
    INDEX 01 00:01:09
  TRACK 04 AUDIO
    TITLE "11:cjc026_09085"
    INDEX 01 00:01:36
  TRACK 05 AUDIO
    TITLE "0:"
    INDEX 01 00:02:42
  TRACK 06 AUDIO
    TITLE "12:cjc026_09086"
    INDEX 01 00:02:69
  TRACK 07 AUDIO
    TITLE "0:"
    INDEX 01 00:03:70
  TRACK 08 AUDIO
    TITLE "10:cjc026_09087"
    INDEX 01 00:04:23
  TRACK 09 AUDIO
    TITLE "0:"
    INDEX 01 00:05:24
  TRACK 10 AUDIO
    TITLE "11:cjc026_09088"
    INDEX 01 00:05:52
  TRACK 11 AUDIO
    TITLE "0:"
    INDEX 01 00:06:45
  TRACK 12 AUDIO
    TITLE "12:cjc026_09089"
    INDEX 01 00:06:73
  TRACK 13 AUDIO
    TITLE "0:"
    INDEX 01 00:07:74
  TRACK 14 AUDIO
    TITLE "10:cjc026_09090"
    INDEX 01 00:08:28
  TRACK 15 AUDIO
    TITLE "0:"
    INDEX 01 00:09:44
  TRACK 16 AUDIO
    TITLE "11:cjc026_09091"
    INDEX 01 00:09:69
  TRACK 17 AUDIO
    TITLE "0:"
    INDEX 01 00:10:72
  TRACK 18 AUDIO
    TITLE "12:cjc026_09092"
    INDEX 01 00:11:25
  TRACK 19 AUDIO
    TITLE "0:"
    INDEX 01 00:12:40
  TRACK 20 AUDIO
    TITLE "10:cjc026_09093"
    INDEX 01 00:12:65
  TRACK 21 AUDIO
    TITLE "0:"
    INDEX 01 00:13:67
  TRACK 22 AUDIO
    TITLE "11:cjc026_09094"
    INDEX 01 00:14:19
  TRACK 23 AUDIO
    TITLE "0:"
    INDEX 01 00:15:28
  TRACK 24 AUDIO
    TITLE "12:cjc026_09095"
    INDEX 01 00:15:54
  TRACK 25 AUDIO
    TITLE "0:"
    INDEX 01 00:16:57
  TRACK 26 AUDIO
    TITLE "10:cjc026_09096"
    INDEX 01 00:17:08
  TRACK 27 AUDIO
    TITLE "0:"
    INDEX 01 00:18:11
  TRACK 28 AUDIO
    TITLE "11:cjc026_09097"
    INDEX 01 00:18:37
  TRACK 29 AUDIO
    TITLE "0:"
    INDEX 01 00:19:46
  TRACK 30 AUDIO
    TITLE "12:cjc026_09098"
    INDEX 01 00:19:71
  TRACK 31 AUDIO
    TITLE "0:"
    INDEX 01 00:20:73
  TRACK 32 AUDIO
    TITLE "10:cjc026_09099"
    INDEX 01 00:21:23
  TRACK 33 AUDIO
    TITLE "0:"
    INDEX 01 00:22:29
  TRACK 34 AUDIO
    TITLE "11:cjc026_09100"
    INDEX 01 00:22:54
  TRACK 35 AUDIO
    TITLE "0:"
    INDEX 01 00:24:00
  TRACK 36 AUDIO
    TITLE "12:cjc026_09101"
    INDEX 01 00:24:25
  TRACK 37 AUDIO
    TITLE "0:"
    INDEX 01 00:25:29
  TRACK 38 AUDIO
    TITLE "10:cjc026_09102"
    INDEX 01 00:25:56
  TRACK 39 AUDIO
    TITLE "0:"
    INDEX 01 00:26:58
  TRACK 40 AUDIO
    TITLE "11:cjc026_09103"
    INDEX 01 00:27:10
  TRACK 41 AUDIO
    TITLE "0:"
    INDEX 01 00:28:10
  TRACK 42 AUDIO
    TITLE "12:cjc026_09104"
    INDEX 01 00:28:35
  TRACK 43 AUDIO
    TITLE "0:"
    INDEX 01 00:29:36
  TRACK 44 AUDIO
    TITLE "10:cjc026_09105"
    INDEX 01 00:29:64
  TRACK 45 AUDIO
    TITLE "0:"
    INDEX 01 00:30:69
  TRACK 46 AUDIO
    TITLE "11:cjc026_09106"
    INDEX 01 00:31:20
  TRACK 47 AUDIO
    TITLE "0:"
    INDEX 01 00:32:19
  TRACK 48 AUDIO
    TITLE "12:cjc026_09107"
    INDEX 01 00:32:47
  TRACK 49 AUDIO
    TITLE "0:"
    INDEX 01 00:33:50
  TRACK 50 AUDIO
    TITLE "10:cjc026_09108"
    INDEX 01 00:34:02
  TRACK 51 AUDIO
    TITLE "0:"
    INDEX 01 00:34:73
  TRACK 52 AUDIO
    TITLE "11:cjc026_09109"
    INDEX 01 00:35:23
  TRACK 53 AUDIO
    TITLE "0:"
    INDEX 01 00:36:21
  TRACK 54 AUDIO
    TITLE "12:cjc026_09110"
    INDEX 01 00:36:46
  TRACK 55 AUDIO
    TITLE "0:"
    INDEX 01 00:37:44
  TRACK 56 AUDIO
    TITLE "10:cjc026_09111"
    INDEX 01 00:37:71
  TRACK 57 AUDIO
    TITLE "0:"
    INDEX 01 00:39:13
  TRACK 58 AUDIO
    TITLE "11:cjc026_09112"
    INDEX 01 00:39:39
  TRACK 59 AUDIO
    TITLE "0:"
    INDEX 01 00:40:38
  TRACK 60 AUDIO
    TITLE "12:cjc026_09113"
    INDEX 01 00:40:68
  TRACK 61 AUDIO
    TITLE "0:"
    INDEX 01 00:42:08
  TRACK 62 AUDIO
    TITLE "10:cjc026_09114"
    INDEX 01 00:42:35
  TRACK 63 AUDIO
    TITLE "0:"
    INDEX 01 00:43:39
  TRACK 64 AUDIO
    TITLE "11:cjc026_09115"
    INDEX 01 00:43:64
  TRACK 65 AUDIO
    TITLE "0:"
    INDEX 01 00:45:16
  TRACK 66 AUDIO
    TITLE "12:cjc026_09116"
    INDEX 01 00:45:43
  TRACK 67 AUDIO
    TITLE "0:"
    INDEX 01 00:46:45
  TRACK 68 AUDIO
    TITLE "10:cjc026_09117"
    INDEX 01 00:46:70
  TRACK 69 AUDIO
    TITLE "0:"
    INDEX 01 00:47:68
  TRACK 70 AUDIO
    TITLE "11:cjc026_09118"
    INDEX 01 00:48:18
  TRACK 71 AUDIO
    TITLE "0:"
    INDEX 01 00:49:23
  TRACK 72 AUDIO
    TITLE "12:cjc026_09119"
    INDEX 01 00:49:49
  TRACK 73 AUDIO
    TITLE "0:"
    INDEX 01 00:50:46
  TRACK 74 AUDIO
    TITLE "10:cjc026_09120"
    INDEX 01 00:50:70
  TRACK 75 AUDIO
    TITLE "0:"
    INDEX 01 00:52:08
  TRACK 76 AUDIO
    TITLE "11:cjc026_09121"
    INDEX 01 00:52:36
  TRACK 77 AUDIO
    TITLE "0:"
    INDEX 01 00:53:55
  TRACK 78 AUDIO
    TITLE "12:cjc026_09122"
    INDEX 01 00:54:05
  TRACK 79 AUDIO
    TITLE "0:"
    INDEX 01 00:55:20
  TRACK 80 AUDIO
    TITLE "10:cjc026_09123"
    INDEX 01 00:55:46
  TRACK 81 AUDIO
    TITLE "0:"
    INDEX 01 00:56:63
  TRACK 82 AUDIO
    TITLE "11:cjc026_09124"
    INDEX 01 00:57:15
  TRACK 83 AUDIO
    TITLE "0:"
    INDEX 01 00:58:48
  TRACK 84 AUDIO
    TITLE "12:cjc026_09125"
    INDEX 01 00:58:73
  TRACK 85 AUDIO
    TITLE "0:"
    INDEX 01 01:00:15
